<svg width="100" height="100" viewBox="0 0 100 100" fill="none" xmlns="http://www.w3.org/2000/svg">
<path d="M0 48C0 25.3726 0 14.0589 7.02944 7.02944C14.0589 0 25.3726 0 48 0L52 0C74.6274 0 85.9411 0 92.9706 7.02944C100 14.0589 100 25.3726 100 48V52C100 74.6274 100 85.9411 92.9706 92.9706C85.9411 100 74.6274 100 52 100H48C25.3726 100 14.0589 100 7.02944 92.9706C0 85.9411 0 74.6274 0 52L0 48Z" fill="#0077FF"/>
<path d="M53.2085 72.0418C30.4168 72.0418 17.4169 56.4169 16.8752 30.4169H28.2919C28.6669 49.5002 37.0834 57.5835 43.75 59.2501V30.4169H54.5004V46.8751C61.0837 46.1668 67.9995 38.6669 70.3329 30.4169H81.0832C79.2915 40.5835 71.7915 48.0835 66.4582 51.1668C71.7915 53.6668 80.3336 60.2085 83.5836 72.0418H71.7499C69.2082 64.1252 62.8754 58.0001 54.5004 57.1668L54.5004 72.0418H53.2085Z" fill="white"/>
</svg>
